<svg width="236" height="260" viewBox="0 0 236 260" fill="none" xmlns="http://www.w3.org/2000/svg">
<path d="M82.9688 46.7188H81.125C82.1391 46.7188 82.9688 45.8047 82.9688 44.6875V46.7188H153.031V44.6875C153.031 45.8047 153.861 46.7188 154.875 46.7188H153.031V65H169.625V44.6875C169.625 35.7246 163.011 28.4375 154.875 28.4375H81.125C72.9895 28.4375 66.375 35.7246 66.375 44.6875V65H82.9688V46.7188ZM199.125 65H36.875C32.7957 65 29.5 68.6309 29.5 73.125V81.25C29.5 82.3672 30.3297 83.2812 31.3438 83.2812H45.2641L50.9566 216.074C51.3254 224.732 57.8246 231.562 65.6836 231.562H170.316C178.198 231.562 184.675 224.758 185.043 216.074L190.736 83.2812H204.656C205.67 83.2812 206.5 82.3672 206.5 81.25V73.125C206.5 68.6309 203.204 65 199.125 65ZM168.542 213.281H67.4582L61.8809 83.2812H174.119L168.542 213.281Z" fill="#CFD8E0"/>
</svg>
