<svg width="579" height="123" viewBox="0 0 579 123" fill="none" xmlns="http://www.w3.org/2000/svg">
<g filter="url(#filter0_d_13_9)">
<path d="M0.140015 91V0.8125H36.8275C45.8692 0.8125 53.6192 2.52083 60.0775 5.9375C66.5358 9.35417 71.4733 14.375 74.89 21C78.3067 27.5833 80.015 35.6667 80.015 45.25V45.375C80.015 54.9583 78.3067 63.1667 74.89 70C71.4733 76.7917 66.5358 82 60.0775 85.625C53.6608 89.2083 45.9108 91 36.8275 91H0.140015ZM23.0775 72.5H33.765C38.7233 72.5 42.9108 71.5 46.3275 69.5C49.7442 67.4583 52.3067 64.4375 54.015 60.4375C55.765 56.4375 56.64 51.4375 56.64 45.4375V45.3125C56.64 39.6875 55.7442 34.9375 53.9525 31.0625C52.1608 27.1875 49.5358 24.2708 46.0775 22.3125C42.6608 20.3125 38.5567 19.3125 33.765 19.3125H23.0775V72.5ZM127.385 92.4375C120.218 92.4375 114.052 91.0208 108.885 88.1875C103.718 85.3125 99.7392 81.2292 96.9475 75.9375C94.1975 70.6458 92.8225 64.3333 92.8225 57V56.9375C92.8225 49.6458 94.1975 43.3542 96.9475 38.0625C99.7392 32.7708 103.656 28.6875 108.698 25.8125C113.781 22.9375 119.76 21.5 126.635 21.5C133.51 21.5 139.468 22.9167 144.51 25.75C149.552 28.5417 153.448 32.5 156.198 37.625C158.948 42.7083 160.323 48.6875 160.323 55.5625V62.0625H103.698V48.9375H149.948L139.635 61.25V52.6875C139.635 49.3958 139.114 46.6042 138.073 44.3125C137.031 41.9792 135.573 40.2292 133.698 39.0625C131.823 37.8542 129.635 37.25 127.135 37.25C124.635 37.25 122.427 37.8542 120.51 39.0625C118.635 40.2708 117.177 42.0417 116.135 44.375C115.093 46.6667 114.573 49.4375 114.573 52.6875V61.3125C114.573 64.5208 115.093 67.2708 116.135 69.5625C117.218 71.8542 118.739 73.625 120.698 74.875C122.698 76.0833 125.073 76.6875 127.823 76.6875C130.198 76.6875 132.218 76.3125 133.885 75.5625C135.552 74.8125 136.864 73.8958 137.823 72.8125C138.823 71.7292 139.489 70.7083 139.823 69.75L139.885 69.5H159.885L159.698 70.25C159.198 72.625 158.239 75.1042 156.823 77.6875C155.406 80.2292 153.427 82.625 150.885 84.875C148.385 87.125 145.198 88.9583 141.323 90.375C137.489 91.75 132.843 92.4375 127.385 92.4375ZM188.818 91L166.068 22.9375H189.88L201.755 72.4375H202.193L213.818 22.9375H237.005L214.505 91H188.818ZM277.625 92.4375C270.458 92.4375 264.292 91.0208 259.125 88.1875C253.958 85.3125 249.979 81.2292 247.188 75.9375C244.438 70.6458 243.063 64.3333 243.063 57V56.9375C243.063 49.6458 244.438 43.3542 247.188 38.0625C249.979 32.7708 253.896 28.6875 258.938 25.8125C264.021 22.9375 270 21.5 276.875 21.5C283.75 21.5 289.708 22.9167 294.75 25.75C299.792 28.5417 303.688 32.5 306.438 37.625C309.188 42.7083 310.563 48.6875 310.563 55.5625V62.0625H253.938V48.9375H300.188L289.875 61.25V52.6875C289.875 49.3958 289.354 46.6042 288.313 44.3125C287.271 41.9792 285.813 40.2292 283.938 39.0625C282.063 37.8542 279.875 37.25 277.375 37.25C274.875 37.25 272.667 37.8542 270.75 39.0625C268.875 40.2708 267.417 42.0417 266.375 44.375C265.333 46.6667 264.813 49.4375 264.813 52.6875V61.3125C264.813 64.5208 265.333 67.2708 266.375 69.5625C267.458 71.8542 268.979 73.625 270.938 74.875C272.938 76.0833 275.313 76.6875 278.063 76.6875C280.438 76.6875 282.458 76.3125 284.125 75.5625C285.792 74.8125 287.104 73.8958 288.063 72.8125C289.063 71.7292 289.729 70.7083 290.063 69.75L290.125 69.5H310.125L309.938 70.25C309.438 72.625 308.479 75.1042 307.063 77.6875C305.646 80.2292 303.667 82.625 301.125 84.875C298.625 87.125 295.438 88.9583 291.563 90.375C287.729 91.75 283.083 92.4375 277.625 92.4375ZM325.745 91V0.8125H348.683V72.5625H385.995V91H325.745ZM432.365 92.4375C425.198 92.4375 419.011 91.0417 413.803 88.25C408.594 85.4583 404.573 81.4167 401.74 76.125C398.948 70.8333 397.553 64.4583 397.553 57V56.875C397.553 49.5417 398.99 43.2292 401.865 37.9375C404.74 32.6042 408.782 28.5417 413.99 25.75C419.198 22.9167 425.323 21.5 432.365 21.5C439.448 21.5 445.594 22.9167 450.803 25.75C456.011 28.5417 460.053 32.5833 462.928 37.875C465.803 43.125 467.24 49.4583 467.24 56.875V57C467.24 64.5 465.823 70.8958 462.99 76.1875C460.157 81.4792 456.136 85.5208 450.928 88.3125C445.761 91.0625 439.573 92.4375 432.365 92.4375ZM432.428 75.625C434.969 75.625 437.157 74.9167 438.99 73.5C440.823 72.0417 442.219 69.9167 443.178 67.125C444.178 64.3333 444.678 60.9583 444.678 57V56.875C444.678 52.9583 444.157 49.625 443.115 46.875C442.115 44.0833 440.698 41.9583 438.865 40.5C437.032 39.0417 434.865 38.3125 432.365 38.3125C429.907 38.3125 427.74 39.0417 425.865 40.5C424.032 41.9583 422.594 44.0833 421.553 46.875C420.553 49.625 420.053 52.9583 420.053 56.875V57C420.053 60.9583 420.553 64.3333 421.553 67.125C422.553 69.9167 423.969 72.0417 425.803 73.5C427.678 74.9167 429.886 75.625 432.428 75.625ZM514.298 114.312C507.756 114.312 502.048 113.438 497.173 111.688C492.339 109.938 488.506 107.542 485.673 104.5C482.839 101.458 481.173 98.0417 480.673 94.25L480.61 93.6875H502.048L502.173 94.0625C502.756 95.3542 504.068 96.5833 506.11 97.75C508.152 98.9167 510.923 99.5 514.423 99.5C518.589 99.5 521.714 98.5625 523.798 96.6875C525.923 94.8125 526.985 92.3542 526.985 89.3125V78H526.548C525.464 80.3333 523.923 82.3333 521.923 84C519.923 85.6667 517.568 86.9583 514.86 87.875C512.152 88.7917 509.152 89.25 505.86 89.25C500.193 89.25 495.339 87.9375 491.298 85.3125C487.298 82.6875 484.235 78.9167 482.11 74C479.985 69.0417 478.923 63.0625 478.923 56.0625V56C478.923 48.625 480.006 42.3958 482.173 37.3125C484.339 32.1875 487.443 28.2708 491.485 25.5625C495.527 22.8542 500.423 21.5 506.173 21.5C509.381 21.5 512.298 22.0417 514.923 23.125C517.589 24.1667 519.902 25.6667 521.86 27.625C523.818 29.5833 525.36 31.9167 526.485 34.625H526.985V22.9375H549.173V89.0625C549.173 94.0208 547.756 98.3958 544.923 102.188C542.089 105.979 538.068 108.938 532.86 111.062C527.652 113.229 521.464 114.312 514.298 114.312ZM514.298 73.875C516.881 73.875 519.131 73.1875 521.048 71.8125C522.964 70.4375 524.443 68.4792 525.485 65.9375C526.568 63.3542 527.11 60.2917 527.11 56.75V56.6875C527.11 53.1042 526.568 50.0417 525.485 47.5C524.402 44.9167 522.902 42.9583 520.985 41.625C519.11 40.25 516.881 39.5625 514.298 39.5625C511.714 39.5625 509.443 40.25 507.485 41.625C505.568 42.9583 504.068 44.8958 502.985 47.4375C501.943 49.9792 501.423 53.0417 501.423 56.625V56.6875C501.423 60.2292 501.943 63.2917 502.985 65.875C504.027 68.4583 505.527 70.4375 507.485 71.8125C509.443 73.1875 511.714 73.875 514.298 73.875Z" fill="#CFD8E0"/>
</g>
<defs>
<filter id="filter0_d_13_9" x="0.140015" y="0.8125" width="578.032" height="121.5" filterUnits="userSpaceOnUse" color-interpolation-filters="sRGB">
<feFlood flood-opacity="0" result="BackgroundImageFix"/>
<feColorMatrix in="SourceAlpha" type="matrix" values="0 0 0 0 0 0 0 0 0 0 0 0 0 0 0 0 0 0 127 0" result="hardAlpha"/>
<feOffset dx="25" dy="4"/>
<feGaussianBlur stdDeviation="2"/>
<feComposite in2="hardAlpha" operator="out"/>
<feColorMatrix type="matrix" values="0 0 0 0 0.32549 0 0 0 0 0.607843 0 0 0 0 0.960784 0 0 0 0.25 0"/>
<feBlend mode="normal" in2="BackgroundImageFix" result="effect1_dropShadow_13_9"/>
<feBlend mode="normal" in="SourceGraphic" in2="effect1_dropShadow_13_9" result="shape"/>
</filter>
</defs>
</svg>
