<svg width="153" height="32" viewBox="0 0 153 32" fill="none" xmlns="http://www.w3.org/2000/svg">
<g clip-path="url(#clip0_13_211)">
<g filter="url(#filter0_d_13_211)">
<path d="M0.0371094 23.6748V0.211426H9.73173C12.121 0.211426 14.1689 0.655869 15.8755 1.54476C17.5821 2.43365 18.8868 3.73988 19.7897 5.46346C20.6926 7.17619 21.144 9.27919 21.144 11.7724V11.8049C21.144 14.2981 20.6926 16.4337 19.7897 18.2114C18.8868 19.9784 17.5821 21.3334 15.8755 22.2765C14.1799 23.2087 12.132 23.6748 9.73173 23.6748H0.0371094ZM6.09831 18.8618H8.92247C10.2327 18.8618 11.3392 18.6017 12.2421 18.0813C13.145 17.5502 13.8221 16.7643 14.2735 15.7236C14.7359 14.683 14.9672 13.3822 14.9672 11.8212V11.7887C14.9672 10.3252 14.7304 9.08947 14.257 8.08134C13.7835 7.07321 13.0899 6.3144 12.176 5.80492C11.2732 5.2846 10.1887 5.02443 8.92247 5.02443H6.09831V18.8618ZM33.6614 24.0488C31.7676 24.0488 30.1382 23.6803 28.7728 22.9431C27.4075 22.1952 26.3561 21.1328 25.6184 19.7561C24.8917 18.3794 24.5283 16.7372 24.5283 14.8293V14.8131C24.5283 12.916 24.8917 11.2792 25.6184 9.90248C26.3561 8.52578 27.3911 7.46346 28.7234 6.71549C30.0666 5.96752 31.6465 5.59354 33.4632 5.59354C35.28 5.59354 36.8543 5.96211 38.1867 6.69923C39.519 7.42553 40.5485 8.45533 41.2752 9.78866C42.0019 11.1111 42.3653 12.6667 42.3653 14.4553V16.1464H27.4022V12.7318H39.6237L36.8985 15.935V13.7074C36.8985 12.851 36.7608 12.1247 36.4857 11.5285C36.2104 10.9215 35.8251 10.4662 35.3296 10.1626C34.8342 9.84829 34.256 9.6911 33.5954 9.6911C32.9347 9.6911 32.3513 9.84829 31.8447 10.1626C31.3493 10.477 30.964 10.9377 30.6886 11.5448C30.4133 12.141 30.2759 12.8618 30.2759 13.7074V15.9513C30.2759 16.7859 30.4133 17.5014 30.6886 18.0976C30.9748 18.6938 31.3767 19.1545 31.8944 19.4797C32.4229 19.7941 33.0505 19.9513 33.7772 19.9513C34.4048 19.9513 34.9385 19.8537 35.379 19.6586C35.8195 19.4635 36.1662 19.225 36.4197 18.9431C36.6839 18.6613 36.8599 18.3957 36.9482 18.1464L36.9645 18.0813H42.2495L42.2001 18.2765C42.068 18.8944 41.8146 19.5393 41.4404 20.2114C41.0659 20.8727 40.543 21.496 39.8713 22.0813C39.2107 22.6667 38.3685 23.1437 37.3445 23.5122C36.3314 23.87 35.1037 24.0488 33.6614 24.0488ZM49.895 23.6748L43.8834 5.96752H50.1757L53.3136 18.8456H53.4293L56.5012 5.96752H62.6284L56.6828 23.6748H49.895ZM73.3622 24.0488C71.4683 24.0488 69.8389 23.6803 68.4736 22.9431C67.1082 22.1952 66.0567 21.1328 65.3192 19.7561C64.5925 18.3794 64.2292 16.7372 64.2292 14.8293V14.8131C64.2292 12.916 64.5925 11.2792 65.3192 9.90248C66.0567 8.52578 67.0918 7.46346 68.4241 6.71549C69.7673 5.96752 71.3473 5.59354 73.164 5.59354C74.9807 5.59354 76.5551 5.96211 77.8874 6.69923C79.2198 7.42553 80.2493 8.45533 80.976 9.78866C81.7026 11.1111 82.066 12.6667 82.066 14.4553V16.1464H67.1029V12.7318H79.3244L76.5992 15.935V13.7074C76.5992 12.851 76.4615 12.1247 76.1864 11.5285C75.9111 10.9215 75.5258 10.4662 75.0304 10.1626C74.5349 9.84829 73.9567 9.6911 73.2961 9.6911C72.6355 9.6911 72.052 9.84829 71.5454 10.1626C71.05 10.477 70.6647 10.9377 70.3894 11.5448C70.114 12.141 69.9766 12.8618 69.9766 13.7074V15.9513C69.9766 16.7859 70.114 17.5014 70.3894 18.0976C70.6755 18.6938 71.0775 19.1545 71.5951 19.4797C72.1236 19.7941 72.7512 19.9513 73.4779 19.9513C74.1055 19.9513 74.6393 19.8537 75.0798 19.6586C75.5203 19.4635 75.867 19.225 76.1204 18.9431C76.3846 18.6613 76.5606 18.3957 76.6489 18.1464L76.6653 18.0813H81.9502L81.9008 18.2765C81.7687 18.8944 81.5153 19.5393 81.1411 20.2114C80.7667 20.8727 80.2437 21.496 79.572 22.0813C78.9114 22.6667 78.0692 23.1437 77.0452 23.5122C76.0321 23.87 74.8044 24.0488 73.3622 24.0488ZM86.0778 23.6748V0.211426H92.1391V18.8781H101.999V23.6748H86.0778ZM114.252 24.0488C112.358 24.0488 110.723 23.6857 109.347 22.9594C107.971 22.2331 106.908 21.1816 106.159 19.8049C105.422 18.4282 105.053 16.7697 105.053 14.8293V14.7968C105.053 12.8889 105.433 11.2467 106.192 9.86996C106.952 8.48244 108.02 7.42553 109.396 6.69923C110.773 5.96211 112.391 5.59354 114.252 5.59354C116.124 5.59354 117.748 5.96211 119.124 6.69923C120.5 7.42553 121.569 8.477 122.328 9.8537C123.088 11.2196 123.468 12.8672 123.468 14.7968V14.8293C123.468 16.7805 123.093 18.4445 122.345 19.8212C121.596 21.1979 120.533 22.2494 119.157 22.9757C117.792 23.6911 116.157 24.0488 114.252 24.0488ZM114.269 19.6748C114.94 19.6748 115.518 19.4906 116.003 19.122C116.487 18.7426 116.856 18.1898 117.109 17.4635C117.374 16.7372 117.506 15.8591 117.506 14.8293V14.7968C117.506 13.7778 117.368 12.9106 117.093 12.1952C116.828 11.4689 116.454 10.916 115.97 10.5366C115.485 10.1572 114.913 9.96752 114.252 9.96752C113.602 9.96752 113.03 10.1572 112.534 10.5366C112.05 10.916 111.67 11.4689 111.395 12.1952C111.131 12.9106 110.999 13.7778 110.999 14.7968V14.8293C110.999 15.8591 111.131 16.7372 111.395 17.4635C111.659 18.1898 112.033 18.7426 112.518 19.122C113.013 19.4906 113.597 19.6748 114.269 19.6748ZM135.903 29.7397C134.174 29.7397 132.666 29.5124 131.377 29.0571C130.1 28.6018 129.087 27.9784 128.339 27.187C127.59 26.3956 127.149 25.5068 127.017 24.5204L127.001 24.374H132.666L132.699 24.4716C132.853 24.8076 133.199 25.1274 133.739 25.4309C134.279 25.7345 135.011 25.8862 135.936 25.8862C137.037 25.8862 137.862 25.6423 138.413 25.1545C138.975 24.6667 139.255 24.0272 139.255 23.2358V20.2927H139.14C138.853 20.8998 138.446 21.4201 137.918 21.8537C137.389 22.2873 136.767 22.6233 136.051 22.8618C135.336 23.1003 134.543 23.2196 133.673 23.2196C132.175 23.2196 130.893 22.8781 129.825 22.1952C128.768 21.5122 127.959 20.5312 127.397 19.2521C126.836 17.9621 126.555 16.4065 126.555 14.5854V14.5691C126.555 12.6504 126.841 11.0298 127.414 9.70736C127.986 8.37403 128.806 7.35505 129.874 6.65045C130.942 5.94585 132.236 5.59354 133.756 5.59354C134.603 5.59354 135.374 5.73447 136.068 6.0163C136.772 6.28731 137.384 6.67756 137.901 7.18704C138.418 7.69651 138.826 8.30358 139.123 9.00817H139.255V5.96752H145.118V23.1708C145.118 24.4607 144.744 25.599 143.995 26.5855C143.246 27.5718 142.184 28.3416 140.808 28.8942C139.431 29.458 137.796 29.7397 135.903 29.7397ZM135.903 19.2196C136.585 19.2196 137.18 19.0407 137.686 18.683C138.193 18.3252 138.583 17.8158 138.859 17.1545C139.145 16.4824 139.288 15.6857 139.288 14.7643V14.748C139.288 13.8158 139.145 13.019 138.859 12.3578C138.573 11.6857 138.176 11.1762 137.67 10.8293C137.174 10.4716 136.585 10.2927 135.903 10.2927C135.22 10.2927 134.62 10.4716 134.102 10.8293C133.596 11.1762 133.199 11.6803 132.913 12.3415C132.638 13.0028 132.5 13.7995 132.5 14.7318V14.748C132.5 15.6694 132.638 16.4662 132.913 17.1383C133.189 17.8103 133.585 18.3252 134.102 18.683C134.62 19.0407 135.22 19.2196 135.903 19.2196Z" fill="#CFD8E0"/>
</g>
</g>
<defs>
<filter id="filter0_d_13_211" x="0.0371094" y="0.211426" width="174.081" height="37.5283" filterUnits="userSpaceOnUse" color-interpolation-filters="sRGB">
<feFlood flood-opacity="0" result="BackgroundImageFix"/>
<feColorMatrix in="SourceAlpha" type="matrix" values="0 0 0 0 0 0 0 0 0 0 0 0 0 0 0 0 0 0 127 0" result="hardAlpha"/>
<feOffset dx="25" dy="4"/>
<feGaussianBlur stdDeviation="2"/>
<feComposite in2="hardAlpha" operator="out"/>
<feColorMatrix type="matrix" values="0 0 0 0 0.32549 0 0 0 0 0.607843 0 0 0 0 0.960784 0 0 0 0.25 0"/>
<feBlend mode="normal" in2="BackgroundImageFix" result="effect1_dropShadow_13_211"/>
<feBlend mode="normal" in="SourceGraphic" in2="effect1_dropShadow_13_211" result="shape"/>
</filter>
<clipPath id="clip0_13_211">
<rect width="153" height="32" fill="white"/>
</clipPath>
</defs>
</svg>
